<svg xmlns="http://www.w3.org/2000/svg" width="60" height="60" viewBox="0 0 46 44.836">
  <path id="icons8-github" d="M17.791,46.836A2,2,0,0,0,19,45V39.6a5.151,5.151,0,0,1,.041-.61L19,39H15.4A3.6,3.6,0,0,1,12,37.2c-.7-1.3-1-3.5-2.8-4.7-.3-.2-.1-.5.5-.5a5.477,5.477,0,0,1,2.7,2c.9,1.1,1.8,2,3.4,2,2.487,0,3.82-.125,4.622-.555C21.356,34.056,22.649,33,24,33v-.025c-5.668-.182-9.289-2.066-10.975-4.975a60.352,60.352,0,0,0-8.677.707q-.087-.49-.151-.987a61.26,61.26,0,0,1,8.345-.714,8.162,8.162,0,0,1-.291-.849,64.624,64.624,0,0,0-8.187.1c-.02-.332-.047-.663-.051-1a65.518,65.518,0,0,1,8.018-.111A9.832,9.832,0,0,1,11.9,23.6a8.61,8.61,0,0,1,1.7-5c-.5-1.7-1.2-5.3.2-6.6a8.329,8.329,0,0,1,5.5,2.1A14.82,14.82,0,0,1,25,13a13.978,13.978,0,0,1,5.6,1.1A8.329,8.329,0,0,1,36.1,12c1.5,1.4.7,5,.2,6.6a7.673,7.673,0,0,1,1.6,5,9.974,9.974,0,0,1-.11,1.409,66.058,66.058,0,0,1,8.2.1c0,.337-.033.666-.051,1a64.79,64.79,0,0,0-8.359-.089,8.272,8.272,0,0,1-.325.98,62.155,62.155,0,0,1,8.548.689q-.064.5-.151.987a60.944,60.944,0,0,0-8.879-.682C35.112,30.873,31.557,32.75,26,32.969V33c2.6,0,5,3.9,5,6.6V45a2,2,0,0,0,1.209,1.836,23,23,0,1,0-14.418,0Z" transform="translate(-2 -2)" fill="#fff"/>
</svg>
